<svg width="0" height="0" class="hidden">
  <symbol id="instagram" xmlns="http://www.w3.org/2000/svg" viewBox="0 0 256 256">
    <path d="M160,128a32,32,0,1,1-32-32A32.03667,32.03667,0,0,1,160,128Zm68-44v88a56.06353,56.06353,0,0,1-56,56H84a56.06353,56.06353,0,0,1-56-56V84A56.06353,56.06353,0,0,1,84,28h88A56.06353,56.06353,0,0,1,228,84Zm-52,44a48,48,0,1,0-48,48A48.05436,48.05436,0,0,0,176,128Zm16-52a12,12,0,1,0-12,12A12,12,0,0,0,192,76Z"></path>
  </symbol>
  <symbol xmlns="http://www.w3.org/2000/svg" viewBox="0 0 1920 1920" id="facebook">
    <path d="M1168.737 487.897c44.672-41.401 113.824-36.889 118.9-36.663l289.354-.113 6.317-417.504L1539.65 22.9C1511.675 16.02 1426.053 0 1237.324 0 901.268 0 675.425 235.206 675.425 585.137v93.97H337v451.234h338.425V1920h451.234v-789.66h356.7l62.045-451.233H1126.66v-69.152c0-54.937 14.214-96.112 42.078-122.058" fill-rule="evenodd"></path>
  </symbol>
  <symbol role="img" xmlns="http://www.w3.org/2000/svg" viewBox="0 0 24 24" id="tiktok">
    <title>TikTok icon</title>
    <path d="M12.53.02C13.84 0 15.14.01 16.44 0c.08 1.53.63 3.09 1.75 4.17 1.12 1.11 2.7 1.62 4.24 1.79v4.03c-1.44-.05-2.89-.35-4.2-.97-.57-.26-1.1-.59-1.62-.93-.01 2.92.01 5.84-.02 8.75-.08 1.4-.54 2.79-1.35 3.94-1.31 1.92-3.58 3.17-5.91 3.21-1.43.08-2.86-.31-4.08-1.03-2.02-1.19-3.44-3.37-3.65-5.71-.02-.5-.03-1-.01-1.49.18-1.9 1.12-3.72 2.58-4.96 1.66-1.44 3.98-2.13 6.15-1.72.02 1.48-.04 2.96-.04 4.44-.99-.32-2.15-.23-3.02.37-.63.41-1.11 1.04-1.36 1.75-.21.51-.15 1.07-.14 1.61.24 1.64 1.82 3.02 3.5 2.87 1.12-.01 2.19-.66 2.77-1.61.19-.33.4-.67.41-1.06.1-1.79.06-3.57.07-5.36.01-4.03-.01-8.05.02-12.07z"></path>
  </symbol>
  <symbol version="1.1" id="twitter" xmlns="http://www.w3.org/2000/svg" xmlns:xlink="http://www.w3.org/1999/xlink" xml:space="preserve" viewBox="-271 296.6 256.4 208.4">
    <path d="M-14.6,321.2c-9.4,4.2-19.6,7-30.2,8.3c10.9-6.5,19.2-16.8,23.1-29.1c-10.2,6-21.4,10.4-33.4,12.8
	c-9.6-10.2-23.3-16.6-38.4-16.6c-29,0-52.6,23.6-52.6,52.6c0,4.1,0.4,8.1,1.4,12c-43.7-2.2-82.5-23.1-108.4-55
	c-4.5,7.8-7.1,16.8-7.1,26.5c0,18.2,9.3,34.3,23.4,43.8c-8.6-0.3-16.7-2.7-23.8-6.6v0.6c0,25.5,18.1,46.8,42.2,51.6
	c-4.4,1.2-9.1,1.9-13.9,1.9c-3.4,0-6.7-0.3-9.9-0.9c6.7,20.9,26.1,36.1,49.1,36.5c-18,14.1-40.7,22.5-65.3,22.5
	c-4.2,0-8.4-0.2-12.6-0.7c23.3,14.9,50.9,23.6,80.6,23.6c96.8,0,149.7-80.2,149.7-149.7c0-2.3,0-4.6-0.1-6.8
	C-30.5,341-21.6,331.8-14.6,321.2"></path>
  </symbol>
</svg>


